{
	"asset":{
		"generator":"Khronos glTF Blender I/O v3.6.28",
		"version":"2.0"
	},
	"scene":0,
	"scenes":[
		{
			"name":"Scene",
			"nodes":[
				11
			]
		}
	],
	"nodes":[
		{
			"name":"Bone.001",
			"rotation":[
				-3.5527107141851855e-15,
				2.842170943040401e-14,
				4.2351642314005224e-22,
				1
			],
			"translation":[
				0,
				-1.7021114826202393,
				8.881784197001252e-16
			]
		},
		{
			"name":"Bone.002",
			"rotation":[
				-3.5527107141851855e-15,
				3.552713678800501e-14,
				-2.0194839173657902e-28,
				1
			],
			"translation":[
				0,
				-2.7024829387664795,
				8.881784197001252e-16
			]
		},
		{
			"children":[
				0,
				1
			],
			"name":"Bone",
			"rotation":[
				-2.980232594040899e-08,
				1.1920927533992653e-07,
				0,
				1
			],
			"scale":[
				1,
				0.9999999403953552,
				0.9999999403953552
			],
			"translation":[
				0,
				-1.2772650718688965,
				0
			]
		},
		{
			"name":"neutral_bone",
			"rotation":[
				-0.7071067690849304,
				0,
				0,
				0.7071067690849304
			]
		},
		{
			"mesh":0,
			"name":"Sphere",
			"skin":0
		},
		{
			"mesh":1,
			"name":"Sphere.001",
			"skin":0
		},
		{
			"mesh":2,
			"name":"Sphere.002",
			"skin":0
		},
		{
			"mesh":3,
			"name":"Sphere.003",
			"skin":0
		},
		{
			"mesh":4,
			"name":"Sphere.004",
			"skin":0
		},
		{
			"mesh":5,
			"name":"Sphere.005",
			"skin":0
		},
		{
			"mesh":6,
			"name":"Sphere.006",
			"skin":0
		},
		{
			"children":[
				4,
				5,
				6,
				7,
				8,
				9,
				10,
				2,
				3
			],
			"name":"beteXCORE",
			"rotation":[
				0,
				-0.7071067094802856,
				0,
				0.7071068286895752
			],
			"translation":[
				0,
				0.6793326735496521,
				0
			]
		}
	],
	"animations":[
		{
			"channels":[
				{
					"sampler":0,
					"target":{
						"node":2,
						"path":"translation"
					}
				},
				{
					"sampler":1,
					"target":{
						"node":2,
						"path":"rotation"
					}
				},
				{
					"sampler":2,
					"target":{
						"node":2,
						"path":"scale"
					}
				},
				{
					"sampler":3,
					"target":{
						"node":0,
						"path":"translation"
					}
				},
				{
					"sampler":4,
					"target":{
						"node":0,
						"path":"rotation"
					}
				},
				{
					"sampler":5,
					"target":{
						"node":0,
						"path":"scale"
					}
				},
				{
					"sampler":6,
					"target":{
						"node":1,
						"path":"translation"
					}
				},
				{
					"sampler":7,
					"target":{
						"node":1,
						"path":"rotation"
					}
				},
				{
					"sampler":8,
					"target":{
						"node":1,
						"path":"scale"
					}
				}
			],
			"name":"0_idl_loop",
			"samplers":[
				{
					"input":55,
					"interpolation":"STEP",
					"output":56
				},
				{
					"input":55,
					"interpolation":"STEP",
					"output":57
				},
				{
					"input":55,
					"interpolation":"STEP",
					"output":58
				},
				{
					"input":55,
					"interpolation":"STEP",
					"output":59
				},
				{
					"input":55,
					"interpolation":"STEP",
					"output":60
				},
				{
					"input":55,
					"interpolation":"STEP",
					"output":61
				},
				{
					"input":55,
					"interpolation":"STEP",
					"output":62
				},
				{
					"input":55,
					"interpolation":"STEP",
					"output":63
				},
				{
					"input":55,
					"interpolation":"STEP",
					"output":64
				}
			]
		},
		{
			"channels":[
				{
					"sampler":0,
					"target":{
						"node":2,
						"path":"translation"
					}
				},
				{
					"sampler":1,
					"target":{
						"node":2,
						"path":"rotation"
					}
				},
				{
					"sampler":2,
					"target":{
						"node":2,
						"path":"scale"
					}
				},
				{
					"sampler":3,
					"target":{
						"node":0,
						"path":"translation"
					}
				},
				{
					"sampler":4,
					"target":{
						"node":0,
						"path":"rotation"
					}
				},
				{
					"sampler":5,
					"target":{
						"node":0,
						"path":"scale"
					}
				},
				{
					"sampler":6,
					"target":{
						"node":1,
						"path":"translation"
					}
				},
				{
					"sampler":7,
					"target":{
						"node":1,
						"path":"rotation"
					}
				},
				{
					"sampler":8,
					"target":{
						"node":1,
						"path":"scale"
					}
				}
			],
			"name":"beteXCOREAction",
			"samplers":[
				{
					"input":65,
					"interpolation":"LINEAR",
					"output":66
				},
				{
					"input":65,
					"interpolation":"LINEAR",
					"output":67
				},
				{
					"input":55,
					"interpolation":"STEP",
					"output":68
				},
				{
					"input":55,
					"interpolation":"STEP",
					"output":69
				},
				{
					"input":65,
					"interpolation":"LINEAR",
					"output":70
				},
				{
					"input":55,
					"interpolation":"STEP",
					"output":71
				},
				{
					"input":55,
					"interpolation":"STEP",
					"output":72
				},
				{
					"input":65,
					"interpolation":"LINEAR",
					"output":73
				},
				{
					"input":55,
					"interpolation":"STEP",
					"output":74
				}
			]
		}
	],
	"materials":[
		{
			"doubleSided":true,
			"name":"def",
			"pbrMetallicRoughness":{
				"baseColorTexture":{
					"index":0
				},
				"metallicFactor":0,
				"roughnessFactor":0.5
			}
		},
		{
			"doubleSided":true,
			"name":"light",
			"pbrMetallicRoughness":{
				"baseColorFactor":[
					0.800000011920929,
					0.800000011920929,
					0.800000011920929,
					1
				],
				"metallicFactor":0,
				"roughnessFactor":0.5
			}
		}
	],
	"meshes":[
		{
			"name":"Sphere",
			"primitives":[
				{
					"attributes":{
						"POSITION":0,
						"NORMAL":1,
						"TEXCOORD_0":2,
						"JOINTS_0":3,
						"WEIGHTS_0":4
					},
					"indices":5,
					"material":0
				}
			]
		},
		{
			"name":"Sphere.001",
			"primitives":[
				{
					"attributes":{
						"POSITION":7,
						"NORMAL":8,
						"TEXCOORD_0":9,
						"JOINTS_0":10,
						"WEIGHTS_0":11
					},
					"indices":12,
					"material":0
				}
			]
		},
		{
			"name":"Sphere.002",
			"primitives":[
				{
					"attributes":{
						"POSITION":13,
						"NORMAL":14,
						"TEXCOORD_0":15,
						"JOINTS_0":16,
						"WEIGHTS_0":17
					},
					"indices":18,
					"material":0
				}
			]
		},
		{
			"name":"Sphere.003",
			"primitives":[
				{
					"attributes":{
						"POSITION":19,
						"NORMAL":20,
						"TEXCOORD_0":21,
						"JOINTS_0":22,
						"WEIGHTS_0":23
					},
					"indices":24,
					"material":0
				}
			]
		},
		{
			"name":"Sphere.004",
			"primitives":[
				{
					"attributes":{
						"POSITION":25,
						"NORMAL":26,
						"TEXCOORD_0":27,
						"JOINTS_0":28,
						"WEIGHTS_0":29
					},
					"indices":30,
					"material":0
				},
				{
					"attributes":{
						"POSITION":31,
						"NORMAL":32,
						"TEXCOORD_0":33,
						"JOINTS_0":34,
						"WEIGHTS_0":35
					},
					"indices":36,
					"material":1
				}
			]
		},
		{
			"name":"Sphere.005",
			"primitives":[
				{
					"attributes":{
						"POSITION":37,
						"NORMAL":38,
						"TEXCOORD_0":39,
						"JOINTS_0":40,
						"WEIGHTS_0":41
					},
					"indices":42,
					"material":0
				},
				{
					"attributes":{
						"POSITION":43,
						"NORMAL":44,
						"TEXCOORD_0":45,
						"JOINTS_0":46,
						"WEIGHTS_0":47
					},
					"indices":48,
					"material":1
				}
			]
		},
		{
			"name":"Sphere.006",
			"primitives":[
				{
					"attributes":{
						"POSITION":49,
						"NORMAL":50,
						"TEXCOORD_0":51,
						"JOINTS_0":52,
						"WEIGHTS_0":53
					},
					"indices":54,
					"material":0
				}
			]
		}
	],
	"textures":[
		{
			"sampler":0,
			"source":0
		}
	],
	"images":[
		{
			"bufferView":6,
			"mimeType":"image/png",
			"name":"color_atlas"
		}
	],
	"skins":[
		{
			"inverseBindMatrices":6,
			"joints":[
				2,
				0,
				1,
				3
			],
			"name":"beteXCORE"
		}
	],
	"accessors":[
		{
			"bufferView":0,
			"componentType":5126,
			"count":1077,
			"max":[
				0.955610454082489,
				1.095360279083252,
				0.9798353314399719
			],
			"min":[
				-1.0034385919570923,
				-0.43708622455596924,
				-0.979404091835022
			],
			"type":"VEC3"
		},
		{
			"bufferView":1,
			"componentType":5126,
			"count":1077,
			"type":"VEC3"
		},
		{
			"bufferView":2,
			"componentType":5126,
			"count":1077,
			"type":"VEC2"
		},
		{
			"bufferView":3,
			"componentType":5121,
			"count":1077,
			"type":"VEC4"
		},
		{
			"bufferView":4,
			"componentType":5126,
			"count":1077,
			"type":"VEC4"
		},
		{
			"bufferView":5,
			"componentType":5123,
			"count":3234,
			"type":"SCALAR"
		},
		{
			"bufferView":7,
			"componentType":5126,
			"count":4,
			"type":"MAT4"
		},
		{
			"bufferView":8,
			"componentType":5126,
			"count":820,
			"max":[
				1.2574604749679565,
				0.34113645553588867,
				1.3336139917373657
			],
			"min":[
				-1.3033922910690308,
				-0.5992991328239441,
				-1.3358721733093262
			],
			"type":"VEC3"
		},
		{
			"bufferView":9,
			"componentType":5126,
			"count":820,
			"type":"VEC3"
		},
		{
			"bufferView":10,
			"componentType":5126,
			"count":820,
			"type":"VEC2"
		},
		{
			"bufferView":11,
			"componentType":5121,
			"count":820,
			"type":"VEC4"
		},
		{
			"bufferView":12,
			"componentType":5126,
			"count":820,
			"type":"VEC4"
		},
		{
			"bufferView":13,
			"componentType":5123,
			"count":3360,
			"type":"SCALAR"
		},
		{
			"bufferView":14,
			"componentType":5126,
			"count":1080,
			"max":[
				1.5267868041992188,
				-0.5336546301841736,
				1.556827425956726
			],
			"min":[
				-1.601053237915039,
				-0.9296804666519165,
				-1.5713051557540894
			],
			"type":"VEC3"
		},
		{
			"bufferView":15,
			"componentType":5126,
			"count":1080,
			"type":"VEC3"
		},
		{
			"bufferView":16,
			"componentType":5126,
			"count":1080,
			"type":"VEC2"
		},
		{
			"bufferView":17,
			"componentType":5121,
			"count":1080,
			"type":"VEC4"
		},
		{
			"bufferView":18,
			"componentType":5126,
			"count":1080,
			"type":"VEC4"
		},
		{
			"bufferView":19,
			"componentType":5123,
			"count":3456,
			"type":"SCALAR"
		},
		{
			"bufferView":20,
			"componentType":5126,
			"count":1080,
			"max":[
				1.5451726913452148,
				0.574313223361969,
				1.5666275024414062
			],
			"min":[
				-1.5800886154174805,
				0.1783204823732376,
				-1.5589138269424438
			],
			"type":"VEC3"
		},
		{
			"bufferView":21,
			"componentType":5126,
			"count":1080,
			"type":"VEC3"
		},
		{
			"bufferView":22,
			"componentType":5126,
			"count":1080,
			"type":"VEC2"
		},
		{
			"bufferView":23,
			"componentType":5121,
			"count":1080,
			"type":"VEC4"
		},
		{
			"bufferView":24,
			"componentType":5126,
			"count":1080,
			"type":"VEC4"
		},
		{
			"bufferView":25,
			"componentType":5123,
			"count":3456,
			"type":"SCALAR"
		},
		{
			"bufferView":26,
			"componentType":5126,
			"count":1764,
			"max":[
				1.4250646829605103,
				0.6519051194190979,
				1.4451075792312622
			],
			"min":[
				-1.453644037246704,
				0.464881956577301,
				-1.4338202476501465
			],
			"type":"VEC3"
		},
		{
			"bufferView":27,
			"componentType":5126,
			"count":1764,
			"type":"VEC3"
		},
		{
			"bufferView":28,
			"componentType":5126,
			"count":1764,
			"type":"VEC2"
		},
		{
			"bufferView":29,
			"componentType":5121,
			"count":1764,
			"type":"VEC4"
		},
		{
			"bufferView":30,
			"componentType":5126,
			"count":1764,
			"type":"VEC4"
		},
		{
			"bufferView":31,
			"componentType":5123,
			"count":7560,
			"type":"SCALAR"
		},
		{
			"bufferView":32,
			"componentType":5126,
			"count":2268,
			"max":[
				1.489072322845459,
				0.8048257231712341,
				1.5084524154663086
			],
			"min":[
				-1.5145866870880127,
				0.5647988319396973,
				-1.4954365491867065
			],
			"type":"VEC3"
		},
		{
			"bufferView":33,
			"componentType":5126,
			"count":2268,
			"type":"VEC3"
		},
		{
			"bufferView":34,
			"componentType":5126,
			"count":2268,
			"type":"VEC2"
		},
		{
			"bufferView":35,
			"componentType":5121,
			"count":2268,
			"type":"VEC4"
		},
		{
			"bufferView":36,
			"componentType":5126,
			"count":2268,
			"type":"VEC4"
		},
		{
			"bufferView":37,
			"componentType":5123,
			"count":12726,
			"type":"SCALAR"
		},
		{
			"bufferView":38,
			"componentType":5126,
			"count":1764,
			"max":[
				1.4095115661621094,
				-0.7985966205596924,
				1.4409031867980957
			],
			"min":[
				-1.4899487495422363,
				-0.9850063920021057,
				-1.4588614702224731
			],
			"type":"VEC3"
		},
		{
			"bufferView":39,
			"componentType":5126,
			"count":1764,
			"type":"VEC3"
		},
		{
			"bufferView":40,
			"componentType":5126,
			"count":1764,
			"type":"VEC2"
		},
		{
			"bufferView":41,
			"componentType":5121,
			"count":1764,
			"type":"VEC4"
		},
		{
			"bufferView":42,
			"componentType":5126,
			"count":1764,
			"type":"VEC4"
		},
		{
			"bufferView":43,
			"componentType":5123,
			"count":7560,
			"type":"SCALAR"
		},
		{
			"bufferView":44,
			"componentType":5126,
			"count":2268,
			"max":[
				1.470558524131775,
				-0.9155668020248413,
				1.5025672912597656
			],
			"min":[
				-1.5537946224212646,
				-1.139068841934204,
				-1.5221036672592163
			],
			"type":"VEC3"
		},
		{
			"bufferView":45,
			"componentType":5126,
			"count":2268,
			"type":"VEC3"
		},
		{
			"bufferView":46,
			"componentType":5126,
			"count":2268,
			"type":"VEC2"
		},
		{
			"bufferView":47,
			"componentType":5121,
			"count":2268,
			"type":"VEC4"
		},
		{
			"bufferView":48,
			"componentType":5126,
			"count":2268,
			"type":"VEC4"
		},
		{
			"bufferView":49,
			"componentType":5123,
			"count":12726,
			"type":"SCALAR"
		},
		{
			"bufferView":50,
			"componentType":5126,
			"count":876,
			"max":[
				0.9487403035163879,
				-0.26728424429893494,
				0.9752472043037415
			],
			"min":[
				-1.0069947242736816,
				-0.8524230718612671,
				-0.9806958436965942
			],
			"type":"VEC3"
		},
		{
			"bufferView":51,
			"componentType":5126,
			"count":876,
			"type":"VEC3"
		},
		{
			"bufferView":52,
			"componentType":5126,
			"count":876,
			"type":"VEC2"
		},
		{
			"bufferView":53,
			"componentType":5121,
			"count":876,
			"type":"VEC4"
		},
		{
			"bufferView":54,
			"componentType":5126,
			"count":876,
			"type":"VEC4"
		},
		{
			"bufferView":55,
			"componentType":5123,
			"count":2262,
			"type":"SCALAR"
		},
		{
			"bufferView":56,
			"componentType":5126,
			"count":2,
			"max":[
				1.6
			],
			"min":[
				0.03333333333333333
			],
			"type":"SCALAR"
		},
		{
			"bufferView":57,
			"componentType":5126,
			"count":2,
			"type":"VEC3"
		},
		{
			"bufferView":58,
			"componentType":5126,
			"count":2,
			"type":"VEC4"
		},
		{
			"bufferView":59,
			"componentType":5126,
			"count":2,
			"type":"VEC3"
		},
		{
			"bufferView":60,
			"componentType":5126,
			"count":2,
			"type":"VEC3"
		},
		{
			"bufferView":61,
			"componentType":5126,
			"count":2,
			"type":"VEC4"
		},
		{
			"bufferView":62,
			"componentType":5126,
			"count":2,
			"type":"VEC3"
		},
		{
			"bufferView":63,
			"componentType":5126,
			"count":2,
			"type":"VEC3"
		},
		{
			"bufferView":64,
			"componentType":5126,
			"count":2,
			"type":"VEC4"
		},
		{
			"bufferView":65,
			"componentType":5126,
			"count":2,
			"type":"VEC3"
		},
		{
			"bufferView":66,
			"componentType":5126,
			"count":48,
			"max":[
				1.6
			],
			"min":[
				0.03333333333333333
			],
			"type":"SCALAR"
		},
		{
			"bufferView":67,
			"componentType":5126,
			"count":48,
			"type":"VEC3"
		},
		{
			"bufferView":68,
			"componentType":5126,
			"count":48,
			"type":"VEC4"
		},
		{
			"bufferView":69,
			"componentType":5126,
			"count":2,
			"type":"VEC3"
		},
		{
			"bufferView":70,
			"componentType":5126,
			"count":2,
			"type":"VEC3"
		},
		{
			"bufferView":71,
			"componentType":5126,
			"count":48,
			"type":"VEC4"
		},
		{
			"bufferView":72,
			"componentType":5126,
			"count":2,
			"type":"VEC3"
		},
		{
			"bufferView":73,
			"componentType":5126,
			"count":2,
			"type":"VEC3"
		},
		{
			"bufferView":74,
			"componentType":5126,
			"count":48,
			"type":"VEC4"
		},
		{
			"bufferView":75,
			"componentType":5126,
			"count":2,
			"type":"VEC3"
		}
	],
	"bufferViews":[
		{
			"buffer":0,
			"byteLength":12924,
			"byteOffset":0,
			"target":34962
		},
		{
			"buffer":0,
			"byteLength":12924,
			"byteOffset":12924,
			"target":34962
		},
		{
			"buffer":0,
			"byteLength":8616,
			"byteOffset":25848,
			"target":34962
		},
		{
			"buffer":0,
			"byteLength":4308,
			"byteOffset":34464,
			"target":34962
		},
		{
			"buffer":0,
			"byteLength":17232,
			"byteOffset":38772,
			"target":34962
		},
		{
			"buffer":0,
			"byteLength":6468,
			"byteOffset":56004,
			"target":34963
		},
		{
			"buffer":0,
			"byteLength":4554,
			"byteOffset":62472
		},
		{
			"buffer":0,
			"byteLength":256,
			"byteOffset":67028
		},
		{
			"buffer":0,
			"byteLength":9840,
			"byteOffset":67284,
			"target":34962
		},
		{
			"buffer":0,
			"byteLength":9840,
			"byteOffset":77124,
			"target":34962
		},
		{
			"buffer":0,
			"byteLength":6560,
			"byteOffset":86964,
			"target":34962
		},
		{
			"buffer":0,
			"byteLength":3280,
			"byteOffset":93524,
			"target":34962
		},
		{
			"buffer":0,
			"byteLength":13120,
			"byteOffset":96804,
			"target":34962
		},
		{
			"buffer":0,
			"byteLength":6720,
			"byteOffset":109924,
			"target":34963
		},
		{
			"buffer":0,
			"byteLength":12960,
			"byteOffset":116644,
			"target":34962
		},
		{
			"buffer":0,
			"byteLength":12960,
			"byteOffset":129604,
			"target":34962
		},
		{
			"buffer":0,
			"byteLength":8640,
			"byteOffset":142564,
			"target":34962
		},
		{
			"buffer":0,
			"byteLength":4320,
			"byteOffset":151204,
			"target":34962
		},
		{
			"buffer":0,
			"byteLength":17280,
			"byteOffset":155524,
			"target":34962
		},
		{
			"buffer":0,
			"byteLength":6912,
			"byteOffset":172804,
			"target":34963
		},
		{
			"buffer":0,
			"byteLength":12960,
			"byteOffset":179716,
			"target":34962
		},
		{
			"buffer":0,
			"byteLength":12960,
			"byteOffset":192676,
			"target":34962
		},
		{
			"buffer":0,
			"byteLength":8640,
			"byteOffset":205636,
			"target":34962
		},
		{
			"buffer":0,
			"byteLength":4320,
			"byteOffset":214276,
			"target":34962
		},
		{
			"buffer":0,
			"byteLength":17280,
			"byteOffset":218596,
			"target":34962
		},
		{
			"buffer":0,
			"byteLength":6912,
			"byteOffset":235876,
			"target":34963
		},
		{
			"buffer":0,
			"byteLength":21168,
			"byteOffset":242788,
			"target":34962
		},
		{
			"buffer":0,
			"byteLength":21168,
			"byteOffset":263956,
			"target":34962
		},
		{
			"buffer":0,
			"byteLength":14112,
			"byteOffset":285124,
			"target":34962
		},
		{
			"buffer":0,
			"byteLength":7056,
			"byteOffset":299236,
			"target":34962
		},
		{
			"buffer":0,
			"byteLength":28224,
			"byteOffset":306292,
			"target":34962
		},
		{
			"buffer":0,
			"byteLength":15120,
			"byteOffset":334516,
			"target":34963
		},
		{
			"buffer":0,
			"byteLength":27216,
			"byteOffset":349636,
			"target":34962
		},
		{
			"buffer":0,
			"byteLength":27216,
			"byteOffset":376852,
			"target":34962
		},
		{
			"buffer":0,
			"byteLength":18144,
			"byteOffset":404068,
			"target":34962
		},
		{
			"buffer":0,
			"byteLength":9072,
			"byteOffset":422212,
			"target":34962
		},
		{
			"buffer":0,
			"byteLength":36288,
			"byteOffset":431284,
			"target":34962
		},
		{
			"buffer":0,
			"byteLength":25452,
			"byteOffset":467572,
			"target":34963
		},
		{
			"buffer":0,
			"byteLength":21168,
			"byteOffset":493024,
			"target":34962
		},
		{
			"buffer":0,
			"byteLength":21168,
			"byteOffset":514192,
			"target":34962
		},
		{
			"buffer":0,
			"byteLength":14112,
			"byteOffset":535360,
			"target":34962
		},
		{
			"buffer":0,
			"byteLength":7056,
			"byteOffset":549472,
			"target":34962
		},
		{
			"buffer":0,
			"byteLength":28224,
			"byteOffset":556528,
			"target":34962
		},
		{
			"buffer":0,
			"byteLength":15120,
			"byteOffset":584752,
			"target":34963
		},
		{
			"buffer":0,
			"byteLength":27216,
			"byteOffset":599872,
			"target":34962
		},
		{
			"buffer":0,
			"byteLength":27216,
			"byteOffset":627088,
			"target":34962
		},
		{
			"buffer":0,
			"byteLength":18144,
			"byteOffset":654304,
			"target":34962
		},
		{
			"buffer":0,
			"byteLength":9072,
			"byteOffset":672448,
			"target":34962
		},
		{
			"buffer":0,
			"byteLength":36288,
			"byteOffset":681520,
			"target":34962
		},
		{
			"buffer":0,
			"byteLength":25452,
			"byteOffset":717808,
			"target":34963
		},
		{
			"buffer":0,
			"byteLength":10512,
			"byteOffset":743260,
			"target":34962
		},
		{
			"buffer":0,
			"byteLength":10512,
			"byteOffset":753772,
			"target":34962
		},
		{
			"buffer":0,
			"byteLength":7008,
			"byteOffset":764284,
			"target":34962
		},
		{
			"buffer":0,
			"byteLength":3504,
			"byteOffset":771292,
			"target":34962
		},
		{
			"buffer":0,
			"byteLength":14016,
			"byteOffset":774796,
			"target":34962
		},
		{
			"buffer":0,
			"byteLength":4524,
			"byteOffset":788812,
			"target":34963
		},
		{
			"buffer":0,
			"byteLength":8,
			"byteOffset":793336
		},
		{
			"buffer":0,
			"byteLength":24,
			"byteOffset":793344
		},
		{
			"buffer":0,
			"byteLength":32,
			"byteOffset":793368
		},
		{
			"buffer":0,
			"byteLength":24,
			"byteOffset":793400
		},
		{
			"buffer":0,
			"byteLength":24,
			"byteOffset":793424
		},
		{
			"buffer":0,
			"byteLength":32,
			"byteOffset":793448
		},
		{
			"buffer":0,
			"byteLength":24,
			"byteOffset":793480
		},
		{
			"buffer":0,
			"byteLength":24,
			"byteOffset":793504
		},
		{
			"buffer":0,
			"byteLength":32,
			"byteOffset":793528
		},
		{
			"buffer":0,
			"byteLength":24,
			"byteOffset":793560
		},
		{
			"buffer":0,
			"byteLength":192,
			"byteOffset":793584
		},
		{
			"buffer":0,
			"byteLength":576,
			"byteOffset":793776
		},
		{
			"buffer":0,
			"byteLength":768,
			"byteOffset":794352
		},
		{
			"buffer":0,
			"byteLength":24,
			"byteOffset":795120
		},
		{
			"buffer":0,
			"byteLength":24,
			"byteOffset":795144
		},
		{
			"buffer":0,
			"byteLength":768,
			"byteOffset":795168
		},
		{
			"buffer":0,
			"byteLength":24,
			"byteOffset":795936
		},
		{
			"buffer":0,
			"byteLength":24,
			"byteOffset":795960
		},
		{
			"buffer":0,
			"byteLength":768,
			"byteOffset":795984
		},
		{
			"buffer":0,
			"byteLength":24,
			"byteOffset":796752
		}
	],
	"samplers":[
		{
			"magFilter":9728,
			"minFilter":9984
		}
	],
	"buffers":[
		{
			"byteLength":796776,
			"uri":"data:application/octet-stream;base64,"
		}
	]
}
